<svg width="70" height="70" viewBox="0 0 1600 1600" fill="none" xmlns="http://www.w3.org/2000/svg" class="text-neutral-900 dark:text-neutral-100">
<path d="M800 25C1228.11 25 1575 367.55 1575 790.312V809.688C1575 1232.45 1228.11 1575 800 1575C371.886 1575 25 1232.45 25 809.688V790.312C25 367.55 371.886 25 800 25Z" stroke="currentColor" stroke-width="50" stroke-linecap="round"/>
<rect x="298.822" y="451.25" width="786.913" height="143.603" rx="1" stroke="currentColor" stroke-width="50"/>
<rect x="505.893" y="717.959" width="352.04" height="143.603" rx="1" stroke="currentColor" stroke-width="50"/>
<rect x="775.098" y="1005.1" width="310.624" height="143.603" rx="1" stroke="currentColor" stroke-width="50"/>
<path d="M1190.58 487.705C1176.77 487.705 1165.58 498.898 1165.58 512.705C1165.58 526.512 1176.77 537.705 1190.58 537.705V487.705ZM933.461 761.719C923.698 771.482 923.698 787.311 933.461 797.074L1092.56 956.173C1102.32 965.936 1118.15 965.936 1127.92 956.173C1137.68 946.41 1137.68 930.581 1127.92 920.818L986.494 779.396L1127.92 637.975C1137.68 628.212 1137.68 612.383 1127.92 602.62C1118.15 592.856 1102.32 592.856 1092.56 602.62L933.461 761.719ZM1190.58 512.705V537.705H1310.53V512.705V487.705H1190.58V512.705ZM1313.53 515.705H1288.53V776.396H1313.53H1338.53V515.705H1313.53ZM1310.53 779.396V754.396H951.139V779.396V804.396H1310.53V779.396ZM1313.53 776.396H1288.53C1288.53 764.246 1298.38 754.396 1310.53 754.396V779.396V804.396C1326 804.396 1338.53 791.86 1338.53 776.396H1313.53ZM1310.53 512.705V537.705C1298.38 537.705 1288.53 527.855 1288.53 515.705H1313.53H1338.53C1338.53 500.241 1326 487.705 1310.53 487.705V512.705Z" fill="currentColor"/>
<path d="M415.622 754.414C429.429 754.414 440.622 765.607 440.622 779.414C440.622 793.221 429.429 804.414 415.622 804.414V754.414ZM689.24 1069.46C699.003 1079.22 699.003 1095.05 689.24 1104.81L530.141 1263.91C520.378 1273.67 504.549 1273.67 494.786 1263.91C485.023 1254.15 485.023 1238.32 494.786 1228.56L636.207 1087.13L494.786 945.713C485.023 935.95 485.023 920.121 494.786 910.358C504.549 900.595 520.378 900.595 530.141 910.358L689.24 1069.46ZM415.622 779.414V804.414H301.814V779.414V754.414H415.622V779.414ZM298.814 782.414H323.814V1084.13H298.814H273.814V782.414H298.814ZM301.814 1087.13V1062.13H671.562V1087.13V1112.13H301.814V1087.13ZM298.814 1084.13H323.814C323.814 1071.98 313.964 1062.13 301.814 1062.13V1087.13V1112.13C286.35 1112.13 273.814 1099.6 273.814 1084.13H298.814ZM301.814 779.414V804.414C313.964 804.414 323.814 794.564 323.814 782.414H298.814H273.814C273.814 766.95 286.35 754.414 301.814 754.414V779.414Z" fill="currentColor"/>
<path d="M1168.58 1078.23L1202.65 1106.35L1310.53 1005.1" stroke="currentColor" stroke-width="50" stroke-linecap="round"/>
</svg>
