<svg width="492" height="318" viewBox="0 0 492 318" fill="none" xmlns="http://www.w3.org/2000/svg">
<g clip-path="url(#clip0_2014_617)">
<mask id="mask0_2014_617" style="mask-type:luminance" maskUnits="userSpaceOnUse" x="0" y="0" width="493" height="318">
<path d="M0.0244141 0H492.048V318H0.0244141V0Z" fill="white"/>
</mask>
<g mask="url(#mask0_2014_617)">
<path fill-rule="evenodd" clip-rule="evenodd" d="M-76.875 0H568.875V318H-76.875V0Z" fill="white"/>
<path fill-rule="evenodd" clip-rule="evenodd" d="M-76.875 213.532H568.875V318H-76.875V213.532Z" fill="#DA0000"/>
<path fill-rule="evenodd" clip-rule="evenodd" d="M45.9326 218.004H81.2471V220.054H45.9326V218.004ZM51.1938 228.438H53.6441V230.488H51.1938V228.438ZM81.3912 228.438V230.488H74.3283V228.376L81.3912 228.438ZM85.1389 218.004H87.5893V230.426H85.1389V218.004Z" fill="white"/>
<path fill-rule="evenodd" clip-rule="evenodd" d="M99.2643 228.376V230.488H85.8592V228.376H99.2643ZM74.3279 223.47H76.6342V230.488H74.2559L74.3279 223.47Z" fill="white"/>
<path fill-rule="evenodd" clip-rule="evenodd" d="M97.2467 218.004H99.6971V230.426H97.2467V218.004ZM91.1928 218.004H93.5711V230.426H91.1928V218.004ZM58.9053 222.973V225.084H45.9326V222.973H58.9053ZM87.2289 222.973V225.084H74.2563V222.973H87.2289Z" fill="white"/>
<path fill-rule="evenodd" clip-rule="evenodd" d="M74.3279 223.531H76.6342V230.425H74.2559L74.3279 223.531Z" fill="white"/>
<path fill-rule="evenodd" clip-rule="evenodd" d="M74.3279 223.531H76.6342V230.425H74.2559L74.3279 223.531Z" fill="white"/>
<path fill-rule="evenodd" clip-rule="evenodd" d="M74.3285 223.531H76.6348V230.425H74.2564L74.3285 223.531ZM46.0049 223.531H48.3832V230.425H46.0049V223.531ZM66.7611 223.531H69.2115V230.425H66.7611V223.531ZM56.4551 223.531H58.9055V230.425H56.4551V223.531Z" fill="white"/>
<path fill-rule="evenodd" clip-rule="evenodd" d="M68.4188 228.376V230.488H57.5361V228.376H68.4188ZM69.1395 222.973V225.084H62.2207V222.973H69.1395Z" fill="white"/>
<path fill-rule="evenodd" clip-rule="evenodd" d="M-12.1562 218.004H23.1582V220.054H-12.1562V218.004ZM-6.89512 228.438H-4.44473V230.488H-6.96719L-6.89512 228.438ZM23.3023 228.438V230.488H16.2395V228.376L23.3023 228.438ZM27.05 218.004H29.5004V230.426H27.05V218.004Z" fill="white"/>
<path fill-rule="evenodd" clip-rule="evenodd" d="M41.1756 228.376V230.488H27.7705V228.376H41.1756ZM16.2393 223.47H18.6176V230.488H16.2393V223.47Z" fill="white"/>
<path fill-rule="evenodd" clip-rule="evenodd" d="M39.1578 218.004H41.6082V230.426H39.1578V218.004ZM33.1039 218.004H35.4822V230.426H33.1039V218.004ZM0.816406 222.973V225.084H-12.1562V222.973H0.816406ZM29.14 222.973V225.084H16.1674V222.973H29.14Z" fill="white"/>
<path fill-rule="evenodd" clip-rule="evenodd" d="M16.2393 223.531H18.6176V230.425H16.2393V223.531Z" fill="white"/>
<path fill-rule="evenodd" clip-rule="evenodd" d="M16.2393 223.531H18.6176V230.425H16.2393V223.531Z" fill="white"/>
<path fill-rule="evenodd" clip-rule="evenodd" d="M16.2397 223.531H18.618V230.425H16.2397V223.531ZM-12.084 223.531H-9.70567V230.425H-12.084V223.531ZM8.67226 223.531H11.0506V230.425H8.67226V223.531ZM-1.63379 223.531H0.816604V230.425H-1.63379V223.531Z" fill="white"/>
<path fill-rule="evenodd" clip-rule="evenodd" d="M10.3301 228.376V230.488H-0.480469V228.376H10.3301ZM11.0508 222.973V225.084H4.13203V222.973H11.0508Z" fill="white"/>
<path fill-rule="evenodd" clip-rule="evenodd" d="M103.517 218.004H138.831V220.054H103.517V218.004ZM108.778 228.438H111.228V230.488H108.778V228.438ZM138.975 228.438V230.488H131.912V228.376L138.975 228.438ZM142.795 218.004H145.245V230.426H142.795V218.004Z" fill="white"/>
<path fill-rule="evenodd" clip-rule="evenodd" d="M156.848 228.376V230.488H143.443V228.376H156.848ZM131.912 223.47H134.363V230.488H131.912V223.47Z" fill="white"/>
<path fill-rule="evenodd" clip-rule="evenodd" d="M154.831 218.004H157.281V230.426H154.831V218.004ZM148.777 218.004H151.227V230.426H148.705L148.777 218.004ZM116.489 222.973V225.084H103.517V222.973H116.489ZM144.813 222.973V225.084H131.84V222.973H144.813Z" fill="white"/>
<path fill-rule="evenodd" clip-rule="evenodd" d="M131.912 223.531H134.363V230.425H131.912V223.531Z" fill="white"/>
<path fill-rule="evenodd" clip-rule="evenodd" d="M131.912 223.531H134.363V230.425H131.912V223.531Z" fill="white"/>
<path fill-rule="evenodd" clip-rule="evenodd" d="M131.912 223.531H134.363V230.425H131.912V223.531ZM103.589 223.531H106.039V230.425H103.589V223.531ZM124.345 223.531H126.796V230.425H124.345V223.531ZM114.039 223.531H116.489V230.425H114.039V223.531Z" fill="white"/>
<path fill-rule="evenodd" clip-rule="evenodd" d="M126.075 228.376V230.488H115.12V228.376H126.075ZM126.796 222.973V225.084H119.877V222.973H126.796Z" fill="white"/>
<path fill-rule="evenodd" clip-rule="evenodd" d="M161.462 218.004H196.848V220.054H161.534L161.462 218.004ZM166.795 228.438H169.173V230.488H166.795V228.438ZM196.921 228.438V230.488H189.858V228.376L196.921 228.438ZM200.74 218.004H203.191V230.426H200.74V218.004Z" fill="white"/>
<path fill-rule="evenodd" clip-rule="evenodd" d="M214.866 228.376V230.488H201.461V228.376H214.866ZM189.857 223.47H192.308V230.488H189.857V223.47Z" fill="white"/>
<path fill-rule="evenodd" clip-rule="evenodd" d="M212.848 218.004H215.299V230.426H212.848V218.004ZM206.722 218.004H209.173V230.426H206.722V218.004ZM174.435 222.973V225.084H161.534V222.973H174.435ZM202.758 222.973V225.084H189.858V222.973H202.758Z" fill="white"/>
<path fill-rule="evenodd" clip-rule="evenodd" d="M189.857 223.531H192.308V230.425H189.857V223.531Z" fill="white"/>
<path fill-rule="evenodd" clip-rule="evenodd" d="M189.857 223.531H192.308V230.425H189.857V223.531Z" fill="white"/>
<path fill-rule="evenodd" clip-rule="evenodd" d="M189.858 223.531H192.308V230.425H189.858V223.531ZM161.534 223.531H163.985V230.425H161.534V223.531ZM182.29 223.531H184.741V230.425H182.29V223.531ZM172.056 223.531H174.435V230.425H172.056V223.531Z" fill="white"/>
<path fill-rule="evenodd" clip-rule="evenodd" d="M184.02 228.376V230.488H173.138V228.376H184.02ZM184.741 222.973V225.084H177.822V222.973H184.741Z" fill="white"/>
<path fill-rule="evenodd" clip-rule="evenodd" d="M219.694 218.004H255.009V220.054H219.694V218.004ZM224.955 228.438H227.406V230.488H224.955V228.438ZM255.153 228.438V230.488H248.09V228.376L255.153 228.438ZM258.973 218.004H261.351V230.426H258.973V218.004Z" fill="white"/>
<path fill-rule="evenodd" clip-rule="evenodd" d="M273.026 228.376V230.488H259.621V228.376H273.026ZM248.09 223.47H250.54V230.488H248.09V223.47Z" fill="white"/>
<path fill-rule="evenodd" clip-rule="evenodd" d="M271.008 218.004H273.459V230.426H271.008V218.004ZM264.954 218.004H267.405V230.426H264.954V218.004ZM232.667 222.973V225.084H219.694V222.973H232.667ZM260.991 222.973V225.084H248.018V222.973H260.991Z" fill="white"/>
<path fill-rule="evenodd" clip-rule="evenodd" d="M248.09 223.531H250.54V230.425H248.09V223.531Z" fill="white"/>
<path fill-rule="evenodd" clip-rule="evenodd" d="M248.09 223.531H250.54V230.425H248.09V223.531Z" fill="white"/>
<path fill-rule="evenodd" clip-rule="evenodd" d="M248.09 223.531H250.541V230.425H248.09V223.531ZM219.767 223.531H222.145V230.425H219.767V223.531ZM240.523 223.531H242.973V230.425H240.523V223.531ZM230.217 223.531H232.667V230.425H230.145L230.217 223.531Z" fill="white"/>
<path fill-rule="evenodd" clip-rule="evenodd" d="M242.253 228.376V230.488H231.298V228.376H242.253ZM242.973 222.973V225.084H235.91V222.973H242.973Z" fill="white"/>
<path fill-rule="evenodd" clip-rule="evenodd" d="M-76.875 0H568.875V104.468H-76.875V0Z" fill="#239F40"/>
<path fill-rule="evenodd" clip-rule="evenodd" d="M278.216 218.004H313.53V220.054H278.216V218.004ZM283.477 228.438H285.927V230.488H283.477V228.438ZM313.674 228.438V230.488H306.539V228.376L313.674 228.438ZM317.494 218.004H319.872V230.426H317.494V218.004Z" fill="white"/>
<path fill-rule="evenodd" clip-rule="evenodd" d="M331.547 228.376V230.488H318.142V228.376H331.547ZM306.611 223.47H309.062V230.488H306.539L306.611 223.47Z" fill="white"/>
<path fill-rule="evenodd" clip-rule="evenodd" d="M329.602 218.004H331.98V230.426H329.602V218.004ZM323.476 218.004H325.926V230.426H323.476V218.004ZM291.188 222.973V225.084H278.216V222.973H291.188ZM319.512 222.973V225.084H306.539V222.973H319.512Z" fill="white"/>
<path fill-rule="evenodd" clip-rule="evenodd" d="M306.539 223.531H309.062V230.425H306.539V223.531Z" fill="white"/>
<path fill-rule="evenodd" clip-rule="evenodd" d="M306.539 223.531H309.062V230.425H306.539V223.531Z" fill="white"/>
<path fill-rule="evenodd" clip-rule="evenodd" d="M306.54 223.531H309.062V230.425H306.54V223.531ZM278.288 223.531H280.738V230.425H278.288V223.531ZM299.044 223.531H301.495V230.425H299.044V223.531ZM288.738 223.531H291.189V230.425H288.738V223.531Z" fill="white"/>
<path fill-rule="evenodd" clip-rule="evenodd" d="M300.774 228.376V230.488H289.819V228.376H300.774ZM301.495 222.973V225.084H294.576V222.973H301.495Z" fill="white"/>
<path fill-rule="evenodd" clip-rule="evenodd" d="M336.376 218.004H371.69V220.054H336.376V218.004ZM341.637 228.438H344.088V230.488H341.637V228.438ZM371.907 228.438V230.488H364.772V228.376L371.907 228.438ZM375.654 218.004H378.105V230.426H375.654V218.004Z" fill="white"/>
<path fill-rule="evenodd" clip-rule="evenodd" d="M389.708 228.376V230.488H376.303V228.376H389.708ZM364.771 223.47H367.222V230.488H364.771V223.47Z" fill="white"/>
<path fill-rule="evenodd" clip-rule="evenodd" d="M387.762 218.004H390.141V230.426H387.762V218.004ZM381.636 218.004H384.087V230.426H381.636V218.004ZM349.349 222.973V225.084H336.448V222.973H349.349ZM377.672 222.973V225.084H364.772V222.973H377.672Z" fill="white"/>
<path fill-rule="evenodd" clip-rule="evenodd" d="M364.771 223.531H367.222V230.425H364.771V223.531Z" fill="white"/>
<path fill-rule="evenodd" clip-rule="evenodd" d="M364.771 223.531H367.222V230.425H364.771V223.531Z" fill="white"/>
<path fill-rule="evenodd" clip-rule="evenodd" d="M364.772 223.531H367.222V230.425H364.772V223.531ZM336.448 223.531H338.899V230.425H336.448V223.531ZM357.204 223.531H359.655V230.425H357.204V223.531ZM346.898 223.531H349.349V230.425H346.971L346.898 223.531Z" fill="white"/>
<path fill-rule="evenodd" clip-rule="evenodd" d="M358.934 228.376V230.488H348.052V228.376H358.934ZM359.655 222.973V225.084H352.664V222.973H359.655Z" fill="white"/>
<path fill-rule="evenodd" clip-rule="evenodd" d="M394.609 218.004H429.924V220.054H394.609V218.004ZM399.87 228.438H402.321V230.488H399.87V228.438ZM430.068 228.438V230.488H423.005V228.376L430.068 228.438ZM433.816 218.004H436.266V230.426H433.816V218.004Z" fill="white"/>
<path fill-rule="evenodd" clip-rule="evenodd" d="M447.941 228.376V230.488H434.536V228.376H447.941ZM422.933 223.47H425.383V230.488H422.933V223.47Z" fill="white"/>
<path fill-rule="evenodd" clip-rule="evenodd" d="M445.923 218.004H448.374V230.426H445.923V218.004ZM439.87 218.004H442.248V230.426H439.87V218.004ZM407.582 222.973V225.084H394.609V222.973H407.582ZM435.906 222.973V225.084H422.933V222.973H435.906Z" fill="white"/>
<path fill-rule="evenodd" clip-rule="evenodd" d="M423.005 223.531H425.383V230.425H423.005V223.531Z" fill="white"/>
<path fill-rule="evenodd" clip-rule="evenodd" d="M423.005 223.531H425.383V230.425H423.005V223.531Z" fill="white"/>
<path fill-rule="evenodd" clip-rule="evenodd" d="M423.005 223.531H425.383V230.425H423.005V223.531ZM394.609 223.531H397.06V230.425H394.609V223.531ZM415.438 223.531H417.816V230.425H415.438V223.531ZM405.132 223.531H407.582V230.425H405.132V223.531Z" fill="white"/>
<path fill-rule="evenodd" clip-rule="evenodd" d="M417.096 228.376V230.488H406.213V228.376H417.096ZM417.816 222.973V225.084H410.897V222.973H417.816Z" fill="white"/>
<path fill-rule="evenodd" clip-rule="evenodd" d="M453.13 218.004H488.444V220.054H453.13V218.004ZM458.391 228.438H460.841V230.488H458.391V228.438ZM488.588 228.438V230.488H481.526V228.376L488.588 228.438ZM492.336 218.004H494.787V230.426H492.336V218.004Z" fill="white"/>
<path fill-rule="evenodd" clip-rule="evenodd" d="M506.462 228.376V230.488H493.057V228.376H506.462ZM481.525 223.47H483.904V230.488H481.525V223.47Z" fill="white"/>
<path fill-rule="evenodd" clip-rule="evenodd" d="M504.444 218.004H506.894V230.426H504.444V218.004ZM498.39 218.004H500.768V230.426H498.39V218.004ZM466.103 222.973V225.084H453.13V222.973H466.103ZM494.426 222.973V225.084H481.454V222.973H494.426Z" fill="white"/>
<path fill-rule="evenodd" clip-rule="evenodd" d="M481.525 223.531H483.904V230.425H481.525V223.531Z" fill="white"/>
<path fill-rule="evenodd" clip-rule="evenodd" d="M481.525 223.531H483.904V230.425H481.525V223.531Z" fill="white"/>
<path fill-rule="evenodd" clip-rule="evenodd" d="M481.526 223.531H483.904V230.425H481.526V223.531ZM453.202 223.531H455.58V230.425H453.202V223.531ZM473.958 223.531H476.409V230.425H473.958V223.531ZM463.652 223.531H466.103V230.425H463.652V223.531Z" fill="white"/>
<path fill-rule="evenodd" clip-rule="evenodd" d="M475.616 228.376V230.488H464.733V228.376H475.616ZM476.337 222.973V225.084H469.418V222.973H476.337Z" fill="white"/>
<path fill-rule="evenodd" clip-rule="evenodd" d="M45.9326 89.0645H81.2471V91.1762H45.9326V89.0645ZM51.1938 99.623H53.6441V101.611H51.1938V99.623ZM81.3912 99.4988V101.611H74.3283V99.4988H81.3912ZM85.1389 89.0645H87.5893V101.611H85.1389V89.0645Z" fill="white"/>
<path fill-rule="evenodd" clip-rule="evenodd" d="M99.2643 99.4984V101.61H85.8592V99.4984H99.2643ZM74.3279 94.5918H76.6342V101.61H74.2559L74.3279 94.5918Z" fill="white"/>
<path fill-rule="evenodd" clip-rule="evenodd" d="M97.2467 89.0645H99.6971V101.611H97.2467V89.0645ZM91.1928 89.0645H93.5711V101.611H91.1928V89.0645ZM58.9053 94.0332V96.1449H45.9326V94.0953L58.9053 94.0332ZM87.2289 94.0332V96.1449H74.2563V94.0953L87.2289 94.0332Z" fill="white"/>
<path fill-rule="evenodd" clip-rule="evenodd" d="M74.3279 94.5918H76.6342V101.61H74.2559L74.3279 94.5918Z" fill="white"/>
<path fill-rule="evenodd" clip-rule="evenodd" d="M74.3279 94.5918H76.6342V101.61H74.2559L74.3279 94.5918Z" fill="white"/>
<path fill-rule="evenodd" clip-rule="evenodd" d="M74.3285 94.5918H76.6348V101.61H74.2564L74.3285 94.5918ZM46.0049 94.5918H48.3832V101.61H46.0049V94.5918ZM66.7611 94.5918H69.2115V101.61H66.7611V94.5918ZM56.4551 94.5918H58.9055V101.61H56.4551V94.5918Z" fill="white"/>
<path fill-rule="evenodd" clip-rule="evenodd" d="M68.4188 99.4992V101.611H57.5361V99.4992H68.4188ZM69.1395 94.0957V96.1453H62.2207V94.0957H69.1395Z" fill="white"/>
<path fill-rule="evenodd" clip-rule="evenodd" d="M-12.1562 89.0645H23.1582V91.1762H-12.1562V89.0645ZM-6.89512 99.623H-4.44473V101.611H-6.96719L-6.89512 99.623ZM23.3023 99.4988V101.611H16.2395V99.4988H23.3023ZM27.05 89.0645H29.5004V101.611H27.05V89.0645Z" fill="white"/>
<path fill-rule="evenodd" clip-rule="evenodd" d="M41.1756 99.4984V101.61H27.7705V99.4984H41.1756ZM16.2393 94.5918H18.6176V101.61H16.2393V94.5918Z" fill="white"/>
<path fill-rule="evenodd" clip-rule="evenodd" d="M39.1578 89.0645H41.6082V101.611H39.1578V89.0645ZM33.1039 89.0645H35.4822V101.611H33.1039V89.0645ZM0.816406 94.0332V96.1449H-12.1562V94.0953L0.816406 94.0332ZM29.14 94.0332V96.1449H16.1674V94.0953L29.14 94.0332Z" fill="white"/>
<path fill-rule="evenodd" clip-rule="evenodd" d="M16.2393 94.5918H18.6176V101.61H16.2393V94.5918Z" fill="white"/>
<path fill-rule="evenodd" clip-rule="evenodd" d="M16.2393 94.5918H18.6176V101.61H16.2393V94.5918Z" fill="white"/>
<path fill-rule="evenodd" clip-rule="evenodd" d="M16.2397 94.5918H18.618V101.61H16.2397V94.5918ZM-12.084 94.5918H-9.70567V101.61H-12.084V94.5918ZM8.67226 94.5918H11.0506V101.61H8.67226V94.5918ZM-1.63379 94.5918H0.816604V101.61H-1.63379V94.5918Z" fill="white"/>
<path fill-rule="evenodd" clip-rule="evenodd" d="M10.3301 99.4992V101.611H-0.480469V99.4992H10.3301ZM11.0508 94.0957V96.1453H4.13203V94.0957H11.0508Z" fill="white"/>
<path fill-rule="evenodd" clip-rule="evenodd" d="M103.517 89.0645H138.831V91.1762H103.517V89.0645ZM108.778 99.623H111.228V101.611H108.778V99.623ZM138.975 99.4988V101.611H131.912V99.4988H138.975ZM142.795 89.0645H145.245V101.611H142.795V89.0645Z" fill="white"/>
<path fill-rule="evenodd" clip-rule="evenodd" d="M156.848 99.4984V101.61H143.443V99.4984H156.848ZM131.912 94.5918H134.363V101.61H131.912V94.5918Z" fill="white"/>
<path fill-rule="evenodd" clip-rule="evenodd" d="M154.831 89.0645H157.281V101.611H154.831V89.0645ZM148.777 89.0645H151.227V101.611H148.705L148.777 89.0645ZM116.489 94.0332V96.1449H103.517V94.0953L116.489 94.0332ZM144.813 94.0332V96.1449H131.84V94.0953L144.813 94.0332Z" fill="white"/>
<path fill-rule="evenodd" clip-rule="evenodd" d="M131.912 94.5918H134.363V101.61H131.912V94.5918Z" fill="white"/>
<path fill-rule="evenodd" clip-rule="evenodd" d="M131.912 94.5918H134.363V101.61H131.912V94.5918Z" fill="white"/>
<path fill-rule="evenodd" clip-rule="evenodd" d="M131.912 94.5918H134.363V101.61H131.912V94.5918ZM103.589 94.5918H106.039V101.61H103.589V94.5918ZM124.345 94.5918H126.796V101.61H124.345V94.5918ZM114.039 94.5918H116.489V101.61H114.039V94.5918Z" fill="white"/>
<path fill-rule="evenodd" clip-rule="evenodd" d="M126.075 99.4992V101.611H115.12V99.4992H126.075ZM126.796 94.0957V96.1453H119.877V94.0957H126.796Z" fill="white"/>
<path fill-rule="evenodd" clip-rule="evenodd" d="M161.462 89.0645H196.848V91.1762H161.534L161.462 89.0645ZM166.795 99.623H169.173V101.611H166.795V99.623ZM196.921 99.4988V101.611H189.858V99.4988H196.921ZM200.74 89.0645H203.191V101.611H200.74V89.0645Z" fill="white"/>
<path fill-rule="evenodd" clip-rule="evenodd" d="M214.866 99.4984V101.61H201.461V99.4984H214.866ZM189.857 94.5918H192.308V101.61H189.857V94.5918Z" fill="white"/>
<path fill-rule="evenodd" clip-rule="evenodd" d="M212.848 89.0645H215.299V101.611H212.848V89.0645ZM206.722 89.0645H209.173V101.611H206.722V89.0645ZM174.435 94.0332V96.1449H161.534V94.0953L174.435 94.0332ZM202.758 94.0332V96.1449H189.858V94.0953L202.758 94.0332Z" fill="white"/>
<path fill-rule="evenodd" clip-rule="evenodd" d="M189.857 94.5918H192.308V101.61H189.857V94.5918Z" fill="white"/>
<path fill-rule="evenodd" clip-rule="evenodd" d="M189.857 94.5918H192.308V101.61H189.857V94.5918Z" fill="white"/>
<path fill-rule="evenodd" clip-rule="evenodd" d="M189.858 94.5918H192.308V101.61H189.858V94.5918ZM161.534 94.5918H163.985V101.61H161.534V94.5918ZM182.29 94.5918H184.741V101.61H182.29V94.5918ZM172.056 94.5918H174.435V101.61H172.056V94.5918Z" fill="white"/>
<path fill-rule="evenodd" clip-rule="evenodd" d="M184.02 99.4992V101.611H173.138V99.4992H184.02ZM184.741 94.0957V96.1453H177.822V94.0957H184.741Z" fill="white"/>
<path fill-rule="evenodd" clip-rule="evenodd" d="M219.694 89.0645H255.009V91.1762H219.694V89.0645ZM224.955 99.623H227.406V101.611H224.955V99.623ZM255.153 99.4988V101.611H248.09V99.4988H255.153ZM258.973 89.0645H261.351V101.611H258.973V89.0645Z" fill="white"/>
<path fill-rule="evenodd" clip-rule="evenodd" d="M273.026 99.4984V101.61H259.621V99.4984H273.026ZM248.09 94.5918H250.54V101.61H248.09V94.5918Z" fill="white"/>
<path fill-rule="evenodd" clip-rule="evenodd" d="M271.008 89.0645H273.459V101.611H271.008V89.0645ZM264.954 89.0645H267.405V101.611H264.954V89.0645ZM232.667 94.0332V96.1449H219.694V94.0953L232.667 94.0332ZM260.991 94.0332V96.1449H248.018V94.0953L260.991 94.0332Z" fill="white"/>
<path fill-rule="evenodd" clip-rule="evenodd" d="M248.09 94.5918H250.54V101.61H248.09V94.5918Z" fill="white"/>
<path fill-rule="evenodd" clip-rule="evenodd" d="M248.09 94.5918H250.54V101.61H248.09V94.5918Z" fill="white"/>
<path fill-rule="evenodd" clip-rule="evenodd" d="M248.09 94.5918H250.541V101.61H248.09V94.5918ZM219.767 94.5918H222.145V101.61H219.767V94.5918ZM240.523 94.5918H242.973V101.61H240.523V94.5918ZM230.217 94.5918H232.667V101.61H230.145L230.217 94.5918Z" fill="white"/>
<path fill-rule="evenodd" clip-rule="evenodd" d="M242.253 99.4992V101.611H231.298V99.4992H242.253ZM242.973 94.0957V96.1453H235.91V94.0957H242.973Z" fill="white"/>
<path fill-rule="evenodd" clip-rule="evenodd" d="M278.216 89.0645H313.53V91.1762H278.216V89.0645ZM283.477 99.623H285.927V101.611H283.477V99.623ZM313.674 99.4988V101.611H306.539V99.4988H313.674ZM317.494 89.0645H319.872V101.611H317.494V89.0645Z" fill="white"/>
<path fill-rule="evenodd" clip-rule="evenodd" d="M331.547 99.4984V101.61H318.142V99.4984H331.547ZM306.611 94.5918H309.062V101.61H306.539L306.611 94.5918Z" fill="white"/>
<path fill-rule="evenodd" clip-rule="evenodd" d="M329.602 89.0645H331.98V101.611H329.602V89.0645ZM323.476 89.0645H325.926V101.611H323.476V89.0645ZM291.188 94.0332V96.1449H278.216V94.0953L291.188 94.0332ZM319.512 94.0332V96.1449H306.539V94.0953L319.512 94.0332Z" fill="white"/>
<path fill-rule="evenodd" clip-rule="evenodd" d="M306.539 94.5918H309.062V101.61H306.539V94.5918Z" fill="white"/>
<path fill-rule="evenodd" clip-rule="evenodd" d="M306.539 94.5918H309.062V101.61H306.539V94.5918Z" fill="white"/>
<path fill-rule="evenodd" clip-rule="evenodd" d="M306.54 94.5918H309.062V101.61H306.54V94.5918ZM278.288 94.5918H280.738V101.61H278.288V94.5918ZM299.044 94.5918H301.495V101.61H299.044V94.5918ZM288.738 94.5918H291.189V101.61H288.738V94.5918Z" fill="white"/>
<path fill-rule="evenodd" clip-rule="evenodd" d="M300.774 99.4992V101.611H289.819V99.4992H300.774ZM301.495 94.0957V96.1453H294.576V94.0957H301.495Z" fill="white"/>
<path fill-rule="evenodd" clip-rule="evenodd" d="M336.376 89.0645H371.69V91.1762H336.376V89.0645ZM341.637 99.623H344.088V101.611H341.637V99.623ZM371.907 99.4988V101.611H364.772V99.4988H371.907ZM375.654 89.0645H378.105V101.611H375.654V89.0645Z" fill="white"/>
<path fill-rule="evenodd" clip-rule="evenodd" d="M389.708 99.4984V101.61H376.303V99.4984H389.708ZM364.771 94.5918H367.222V101.61H364.771V94.5918Z" fill="white"/>
<path fill-rule="evenodd" clip-rule="evenodd" d="M387.762 89.0645H390.141V101.611H387.762V89.0645ZM381.636 89.0645H384.087V101.611H381.636V89.0645ZM349.349 94.0332V96.1449H336.448V94.0953L349.349 94.0332ZM377.672 94.0332V96.1449H364.772V94.0953L377.672 94.0332Z" fill="white"/>
<path fill-rule="evenodd" clip-rule="evenodd" d="M364.771 94.5918H367.222V101.61H364.771V94.5918Z" fill="white"/>
<path fill-rule="evenodd" clip-rule="evenodd" d="M364.771 94.5918H367.222V101.61H364.771V94.5918Z" fill="white"/>
<path fill-rule="evenodd" clip-rule="evenodd" d="M364.772 94.5918H367.222V101.61H364.772V94.5918ZM336.448 94.5918H338.899V101.61H336.448V94.5918ZM357.204 94.5918H359.655V101.61H357.204V94.5918ZM346.898 94.5918H349.349V101.61H346.971L346.898 94.5918Z" fill="white"/>
<path fill-rule="evenodd" clip-rule="evenodd" d="M358.934 99.4992V101.611H348.052V99.4992H358.934ZM359.655 94.0957V96.1453H352.664V94.0957H359.655Z" fill="white"/>
<path fill-rule="evenodd" clip-rule="evenodd" d="M394.609 89.0645H429.924V91.1762H394.609V89.0645ZM399.87 99.623H402.321V101.611H399.87V99.623ZM430.068 99.4988V101.611H423.005V99.4988H430.068ZM433.816 89.0645H436.266V101.611H433.816V89.0645Z" fill="white"/>
<path fill-rule="evenodd" clip-rule="evenodd" d="M447.941 99.4984V101.61H434.536V99.4984H447.941ZM422.933 94.5918H425.383V101.61H422.933V94.5918Z" fill="white"/>
<path fill-rule="evenodd" clip-rule="evenodd" d="M445.923 89.0645H448.374V101.611H445.923V89.0645ZM439.87 89.0645H442.248V101.611H439.87V89.0645ZM407.582 94.0332V96.1449H394.609V94.0953L407.582 94.0332ZM435.906 94.0332V96.1449H422.933V94.0953L435.906 94.0332Z" fill="white"/>
<path fill-rule="evenodd" clip-rule="evenodd" d="M423.005 94.5918H425.383V101.61H423.005V94.5918Z" fill="white"/>
<path fill-rule="evenodd" clip-rule="evenodd" d="M423.005 94.5918H425.383V101.61H423.005V94.5918Z" fill="white"/>
<path fill-rule="evenodd" clip-rule="evenodd" d="M423.005 94.5918H425.383V101.61H423.005V94.5918ZM394.609 94.5918H397.06V101.61H394.609V94.5918ZM415.438 94.5918H417.816V101.61H415.438V94.5918ZM405.132 94.5918H407.582V101.61H405.132V94.5918Z" fill="white"/>
<path fill-rule="evenodd" clip-rule="evenodd" d="M417.096 99.4992V101.611H406.213V99.4992H417.096ZM417.816 94.0957V96.1453H410.897V94.0957H417.816Z" fill="white"/>
<path fill-rule="evenodd" clip-rule="evenodd" d="M453.13 89.0645H488.444V91.1762H453.13V89.0645ZM458.391 99.623H460.841V101.611H458.391V99.623ZM488.588 99.4988V101.611H481.526V99.4988H488.588ZM492.336 89.0645H494.787V101.611H492.336V89.0645Z" fill="white"/>
<path fill-rule="evenodd" clip-rule="evenodd" d="M506.462 99.4984V101.61H493.057V99.4984H506.462ZM481.525 94.5918H483.904V101.61H481.525V94.5918Z" fill="white"/>
<path fill-rule="evenodd" clip-rule="evenodd" d="M504.444 89.0645H506.894V101.611H504.444V89.0645ZM498.39 89.0645H500.768V101.611H498.39V89.0645ZM466.103 94.0332V96.1449H453.13V94.0953L466.103 94.0332ZM494.426 94.0332V96.1449H481.454V94.0953L494.426 94.0332Z" fill="white"/>
<path fill-rule="evenodd" clip-rule="evenodd" d="M481.525 94.5918H483.904V101.61H481.525V94.5918Z" fill="white"/>
<path fill-rule="evenodd" clip-rule="evenodd" d="M481.525 94.5918H483.904V101.61H481.525V94.5918Z" fill="white"/>
<path fill-rule="evenodd" clip-rule="evenodd" d="M481.526 94.5918H483.904V101.61H481.526V94.5918ZM453.202 94.5918H455.58V101.61H453.202V94.5918ZM473.958 94.5918H476.409V101.61H473.958V94.5918ZM463.652 94.5918H466.103V101.61H463.652V94.5918Z" fill="white"/>
<path fill-rule="evenodd" clip-rule="evenodd" d="M475.616 99.4992V101.611H464.733V99.4992H475.616ZM476.337 94.0957V96.1453H469.418V94.0957H476.337Z" fill="white"/>
<path fill-rule="evenodd" clip-rule="evenodd" d="M11.9156 210.861H16.2398V217.383H11.9156V210.861ZM127.588 210.861H131.913V217.383H127.588V210.861ZM-76.875 210.861H-72.5508V217.383H-76.875V210.861ZM-18.1377 210.861H-13.8135V217.383H-18.1377V210.861ZM40.1672 210.861H44.4914V217.383H40.1672V210.861ZM68.9953 210.861H73.3195V217.383H68.9953V210.861ZM98.4721 210.861H102.796V217.383H98.4721V210.861ZM156.417 210.861H160.741V217.383H156.417V210.861ZM302.719 210.861H307.116V217.383H302.791L302.719 210.861ZM185.893 210.861H190.218V217.383H185.893V210.861ZM214.721 210.861H219.046V217.383H214.721V210.861ZM243.91 210.861H248.234V217.383H243.91V210.861ZM273.026 210.861H277.351V217.383H273.026V210.861ZM505.958 210.861H510.282V217.383H505.958V210.861ZM331.043 210.861H335.367V217.383H331.043V210.861ZM360.448 210.861H364.772V217.383H360.448V210.861ZM390.213 210.861H394.537V217.383H390.213V210.861ZM418.176 210.861H422.5V217.383H418.176V210.861ZM447.941 210.861H452.265V217.383H447.941V210.861ZM477.057 210.861H481.382V217.383H477.057V210.861ZM563.326 210.861H567.65V217.383H563.326V210.861ZM535.362 210.861H539.687V217.383H535.362V210.861ZM-47.6144 210.861H-43.2902V217.383H-47.6144V210.861Z" fill="#D90000"/>
<path fill-rule="evenodd" clip-rule="evenodd" d="M11.9156 100.99H16.2398V107.512H11.9156V100.99ZM127.588 100.99H131.913V107.512H127.588V100.99ZM-76.875 100.99H-72.5508V107.512H-76.875V100.99ZM-18.1377 100.99H-13.8135V107.512H-18.1377V100.99ZM40.1672 100.99H44.4914V107.512H40.1672V100.99ZM68.9953 100.99H73.3195V107.512H68.9953V100.99ZM98.4721 100.99H102.796V107.512H98.4721V100.99ZM156.417 100.99H160.741V107.512H156.417V100.99ZM302.719 100.99H307.116V107.512H302.791L302.719 100.99ZM185.893 100.99H190.218V107.512H185.893V100.99ZM214.721 100.99H219.046V107.512H214.721V100.99ZM243.91 100.99H248.234V107.512H243.91V100.99ZM273.026 100.99H277.351V107.512H273.026V100.99ZM505.958 100.99H510.282V107.512H505.958V100.99ZM331.043 100.99H335.367V107.512H331.043V100.99ZM360.448 100.99H364.772V107.512H360.448V100.99ZM390.213 100.99H394.537V107.512H390.213V100.99ZM418.176 100.99H422.5V107.512H418.176V100.99ZM447.941 100.99H452.265V107.512H447.941V100.99ZM477.057 100.99H481.382V107.512H477.057V100.99ZM563.326 100.99H567.65V107.512H563.326V100.99ZM535.362 100.99H539.687V107.512H535.362V100.99ZM-47.6144 100.99H-43.2902V107.512H-47.6144V100.99Z" fill="#239E3F"/>
<path fill-rule="evenodd" clip-rule="evenodd" d="M263.152 122.666C269.206 129.125 288.017 164.652 251.837 188.005C234.757 199.061 245.351 199.557 245.856 201.421C273.242 188.937 282.107 171.919 281.891 156.702C281.747 141.547 272.377 128.132 263.152 122.666Z" fill="#DA0000"/>
<path fill-rule="evenodd" clip-rule="evenodd" d="M266.756 120.988C273.443 124.495 279.142 129.238 283.441 134.875C287.74 140.512 290.532 146.902 291.615 153.582C292.698 160.263 292.044 167.068 289.702 173.504C287.36 179.941 283.387 185.848 278.071 190.799C297.674 187.073 322.755 137.137 266.756 120.988ZM225.243 120.988C218.562 124.5 212.869 129.247 208.577 134.887C204.285 140.526 201.5 146.917 200.424 153.598C199.348 160.278 200.008 167.081 202.356 173.515C204.704 179.948 208.681 185.852 214.001 190.799C194.325 187.073 169.317 137.137 225.243 120.988Z" fill="#DA0000"/>
<path fill-rule="evenodd" clip-rule="evenodd" d="M228.847 122.666C222.793 129.125 203.982 164.652 240.162 188.005C257.17 199.061 246.648 199.557 246.144 201.421C218.757 188.937 209.892 171.919 210.108 156.702C210.252 141.547 219.622 128.132 228.847 122.666Z" fill="#DA0000"/>
<path fill-rule="evenodd" clip-rule="evenodd" d="M280.737 198.191C269.999 198.315 256.522 196.948 246.504 192.414C248.162 195.209 249.531 196.948 251.188 199.681C260.702 200.489 273.891 201.42 280.737 198.191ZM212.271 198.191C223.009 198.315 236.486 196.948 246.504 192.414C244.846 195.209 243.477 196.948 241.819 199.681C232.306 200.489 219.117 201.42 212.271 198.191ZM231.946 112.045C234.108 117.014 239.801 117.759 245.855 114.84C250.324 117.076 257.17 117.262 259.549 112.293C261.35 124.591 246.36 121.61 245.855 119.25C240.234 123.908 229.856 121.237 231.946 112.045Z" fill="#DA0000"/>
<path fill-rule="evenodd" clip-rule="evenodd" d="M246.288 205.954L251.909 200.364L252.702 125.771L245.999 120.678L239.297 125.522L240.666 200.675L246.288 205.954Z" fill="#DA0000"/>
</g>
</g>
<defs>
<clipPath id="clip0_2014_617">
<rect width="492" height="318" fill="white"/>
</clipPath>
</defs>
</svg>
